{
	"asset":{
		"generator":"Khronos glTF Blender I/O v3.6.27",
		"version":"2.0"
	},
	"scene":0,
	"scenes":[
		{
			"name":"Scene",
			"nodes":[
				0,
				1
			]
		}
	],
	"nodes":[
		{
			"mesh":0,
			"name":"enllogo",
			"rotation":[
				0.70710688829422,
				0,
				0,
				0.7071066498756409
			],
			"scale":[
				7.1229166984558105,
				1,
				7.122916221618652
			]
		},
		{
			"mesh":1,
			"name":"smurf",
			"rotation":[
				0.7065914273262024,
				0.02699299529194832,
				-0.02699299529194832,
				0.7065913677215576
			]
		}
	],
	"animations":[
		{
			"channels":[
				{
					"sampler":0,
					"target":{
						"node":0,
						"path":"rotation"
					}
				}
			],
			"name":"enllogo",
			"samplers":[
				{
					"input":22,
					"interpolation":"LINEAR",
					"output":23
				}
			]
		}
	],
	"materials":[
		{
			"doubleSided":true,
			"name":"SVGMat.001",
			"pbrMetallicRoughness":{
				"baseColorFactor":[
					0.1343347132205963,
					0.6355670094490051,
					0.13232223689556122,
					1
				],
				"metallicFactor":0.802395224571228,
				"roughnessFactor":0.20838327705860138
			}
		},
		{
			"doubleSided":true,
			"name":"Skin.001",
			"pbrMetallicRoughness":{
				"baseColorFactor":[
					0,
					0.18964800238609314,
					0.800000011920929,
					1
				],
				"metallicFactor":0,
				"roughnessFactor":0.5
			}
		},
		{
			"doubleSided":true,
			"name":"Eye_White",
			"pbrMetallicRoughness":{
				"baseColorFactor":[
					0.800000011920929,
					0.800000011920929,
					0.800000011920929,
					1
				],
				"metallicFactor":0,
				"roughnessFactor":0.5
			}
		},
		{
			"doubleSided":true,
			"name":"Pants",
			"pbrMetallicRoughness":{
				"baseColorFactor":[
					0.800000011920929,
					0.800000011920929,
					0.800000011920929,
					1
				],
				"metallicFactor":0,
				"roughnessFactor":0.5
			}
		},
		{
			"doubleSided":true,
			"name":"Mouth_Inside",
			"pbrMetallicRoughness":{
				"baseColorFactor":[
					0.0015180000336840749,
					0.00030399998649954796,
					0,
					1
				],
				"metallicFactor":0,
				"roughnessFactor":0.5
			}
		},
		{
			"doubleSided":true,
			"name":"Hat",
			"pbrMetallicRoughness":{
				"baseColorFactor":[
					0.800000011920929,
					0.800000011920929,
					0.800000011920929,
					1
				],
				"metallicFactor":0,
				"roughnessFactor":0.5
			}
		},
		{
			"doubleSided":true,
			"name":"Pupil",
			"pbrMetallicRoughness":{
				"baseColorFactor":[
					0,
					0,
					0,
					1
				],
				"metallicFactor":0,
				"roughnessFactor":0.5
			}
		}
	],
	"meshes":[
		{
			"name":"enllogo",
			"primitives":[
				{
					"attributes":{
						"POSITION":0,
						"NORMAL":1,
						"TEXCOORD_0":2
					},
					"indices":3,
					"material":0
				}
			]
		},
		{
			"name":"smurf",
			"primitives":[
				{
					"attributes":{
						"POSITION":4,
						"NORMAL":5
					},
					"indices":6,
					"material":1
				},
				{
					"attributes":{
						"POSITION":7,
						"NORMAL":8
					},
					"indices":9,
					"material":2
				},
				{
					"attributes":{
						"POSITION":10,
						"NORMAL":11
					},
					"indices":12,
					"material":3
				},
				{
					"attributes":{
						"POSITION":13,
						"NORMAL":14
					},
					"indices":15,
					"material":4
				},
				{
					"attributes":{
						"POSITION":16,
						"NORMAL":17
					},
					"indices":18,
					"material":5
				},
				{
					"attributes":{
						"POSITION":19,
						"NORMAL":20
					},
					"indices":21,
					"material":6
				}
			]
		}
	],
	"accessors":[
		{
			"bufferView":0,
			"componentType":5126,
			"count":12720,
			"max":[
				0.18675026297569275,
				0.10000000149011612,
				0
			],
			"min":[
				0,
				-0.10000000149011612,
				-0.3191888630390167
			],
			"type":"VEC3"
		},
		{
			"bufferView":1,
			"componentType":5126,
			"count":12720,
			"type":"VEC3"
		},
		{
			"bufferView":2,
			"componentType":5126,
			"count":12720,
			"type":"VEC2"
		},
		{
			"bufferView":3,
			"componentType":5123,
			"count":15504,
			"type":"SCALAR"
		},
		{
			"bufferView":4,
			"componentType":5126,
			"count":14546,
			"max":[
				0.3575820028781891,
				0.23479300737380981,
				-0.2435079962015152
			],
			"min":[
				-0.3498159945011139,
				-0.19790799915790558,
				-0.7019500136375427
			],
			"type":"VEC3"
		},
		{
			"bufferView":5,
			"componentType":5126,
			"count":14546,
			"type":"VEC3"
		},
		{
			"bufferView":6,
			"componentType":5123,
			"count":82269,
			"type":"SCALAR"
		},
		{
			"bufferView":7,
			"componentType":5126,
			"count":325,
			"max":[
				0.05758000165224075,
				0.14431899785995483,
				-0.59859699010849
			],
			"min":[
				-0.050018999725580215,
				0.06597200036048889,
				-0.6663659811019897
			],
			"type":"VEC3"
		},
		{
			"bufferView":8,
			"componentType":5126,
			"count":325,
			"type":"VEC3"
		},
		{
			"bufferView":9,
			"componentType":5123,
			"count":1707,
			"type":"SCALAR"
		},
		{
			"bufferView":10,
			"componentType":5126,
			"count":4288,
			"max":[
				0.169063001871109,
				0.07464999705553055,
				-0.006893999874591827
			],
			"min":[
				-0.15350399911403656,
				-0.19423599541187286,
				-0.34485700726509094
			],
			"type":"VEC3"
		},
		{
			"bufferView":11,
			"componentType":5126,
			"count":4288,
			"type":"VEC3"
		},
		{
			"bufferView":12,
			"componentType":5123,
			"count":23928,
			"type":"SCALAR"
		},
		{
			"bufferView":13,
			"componentType":5126,
			"count":1022,
			"max":[
				0.09821800142526627,
				0.12398800253868103,
				-0.4901160001754761
			],
			"min":[
				-0.09065700322389603,
				0.0640610009431839,
				-0.5592809915542603
			],
			"type":"VEC3"
		},
		{
			"bufferView":14,
			"componentType":5126,
			"count":1022,
			"type":"VEC3"
		},
		{
			"bufferView":15,
			"componentType":5123,
			"count":5352,
			"type":"SCALAR"
		},
		{
			"bufferView":16,
			"componentType":5126,
			"count":4954,
			"max":[
				0.1670520007610321,
				0.14900699257850647,
				-0.4809190034866333
			],
			"min":[
				-0.16937300562858582,
				-0.21914300322532654,
				-0.8441029787063599
			],
			"type":"VEC3"
		},
		{
			"bufferView":17,
			"componentType":5126,
			"count":4954,
			"type":"VEC3"
		},
		{
			"bufferView":18,
			"componentType":5123,
			"count":28608,
			"type":"SCALAR"
		},
		{
			"bufferView":19,
			"componentType":5126,
			"count":631,
			"max":[
				0.042211998254060745,
				0.1425980031490326,
				-0.597927987575531
			],
			"min":[
				-0.03258499875664711,
				0.12141499668359756,
				-0.6177549958229065
			],
			"type":"VEC3"
		},
		{
			"bufferView":20,
			"componentType":5126,
			"count":631,
			"type":"VEC3"
		},
		{
			"bufferView":21,
			"componentType":5123,
			"count":3477,
			"type":"SCALAR"
		},
		{
			"bufferView":22,
			"componentType":5126,
			"count":250,
			"max":[
				10.416666666666666
			],
			"min":[
				0.041666666666666664
			],
			"type":"SCALAR"
		},
		{
			"bufferView":23,
			"componentType":5126,
			"count":250,
			"type":"VEC4"
		}
	],
	"bufferViews":[
		{
			"buffer":0,
			"byteLength":152640,
			"byteOffset":0,
			"target":34962
		},
		{
			"buffer":0,
			"byteLength":152640,
			"byteOffset":152640,
			"target":34962
		},
		{
			"buffer":0,
			"byteLength":101760,
			"byteOffset":305280,
			"target":34962
		},
		{
			"buffer":0,
			"byteLength":31008,
			"byteOffset":407040,
			"target":34963
		},
		{
			"buffer":0,
			"byteLength":174552,
			"byteOffset":438048,
			"target":34962
		},
		{
			"buffer":0,
			"byteLength":174552,
			"byteOffset":612600,
			"target":34962
		},
		{
			"buffer":0,
			"byteLength":164538,
			"byteOffset":787152,
			"target":34963
		},
		{
			"buffer":0,
			"byteLength":3900,
			"byteOffset":951692,
			"target":34962
		},
		{
			"buffer":0,
			"byteLength":3900,
			"byteOffset":955592,
			"target":34962
		},
		{
			"buffer":0,
			"byteLength":3414,
			"byteOffset":959492,
			"target":34963
		},
		{
			"buffer":0,
			"byteLength":51456,
			"byteOffset":962908,
			"target":34962
		},
		{
			"buffer":0,
			"byteLength":51456,
			"byteOffset":1014364,
			"target":34962
		},
		{
			"buffer":0,
			"byteLength":47856,
			"byteOffset":1065820,
			"target":34963
		},
		{
			"buffer":0,
			"byteLength":12264,
			"byteOffset":1113676,
			"target":34962
		},
		{
			"buffer":0,
			"byteLength":12264,
			"byteOffset":1125940,
			"target":34962
		},
		{
			"buffer":0,
			"byteLength":10704,
			"byteOffset":1138204,
			"target":34963
		},
		{
			"buffer":0,
			"byteLength":59448,
			"byteOffset":1148908,
			"target":34962
		},
		{
			"buffer":0,
			"byteLength":59448,
			"byteOffset":1208356,
			"target":34962
		},
		{
			"buffer":0,
			"byteLength":57216,
			"byteOffset":1267804,
			"target":34963
		},
		{
			"buffer":0,
			"byteLength":7572,
			"byteOffset":1325020,
			"target":34962
		},
		{
			"buffer":0,
			"byteLength":7572,
			"byteOffset":1332592,
			"target":34962
		},
		{
			"buffer":0,
			"byteLength":6954,
			"byteOffset":1340164,
			"target":34963
		},
		{
			"buffer":0,
			"byteLength":1000,
			"byteOffset":1347120
		},
		{
			"buffer":0,
			"byteLength":4000,
			"byteOffset":1348120
		}
	],
	"buffers":[
		{
			"byteLength":1352120,
			"uri":"data:application/octet-stream;base64,"
		}
	]
}
